Coordinates
version=1
nRows=16
nColumns=40
inDegrees=yes

Units are S.I. units (second, meters, Newtons, ...)
If the header above contains a line with 'inDegrees', this indicates whether rotational values are in degrees (yes) or radians (no).

endheader
time	pelvis_tilt	pelvis_list	pelvis_rotation	pelvis_tx	pelvis_ty	pelvis_tz	hip_flexion_r	hip_adduction_r	hip_rotation_r	knee_angle_r	knee_angle_r_beta	ankle_angle_r	subtalar_angle_r	mtp_angle_r	hip_flexion_l	hip_adduction_l	hip_rotation_l	knee_angle_l	knee_angle_l_beta	ankle_angle_l	subtalar_angle_l	mtp_angle_l	lumbar_extension	lumbar_bending	lumbar_rotation	arm_flex_r	arm_add_r	arm_rot_r	elbow_flex_r	pro_sup_r	wrist_flex_r	wrist_dev_r	arm_flex_l	arm_add_l	arm_rot_l	elbow_flex_l	pro_sup_l	wrist_flex_l	wrist_dev_l
      1.39166667	     12.21343573	      3.58549870	     71.93713767	      0.84766543	      0.77817093	      0.47005157	     38.82974160	    -33.23921070	     -9.38228574	     36.81839281	      0.64260218	    -19.83274616	      0.00000000	      0.00000000	     16.26020716	    -48.53817972	     39.85526271	     56.84374230	      0.99211046	      4.50970181	      0.00000000	      0.00000000	    -18.42306372	    -11.97533261	     32.35393952	     20.13597226	   -107.53126504	     62.36169177	     55.98012308	     50.43966432	      0.00000000	      0.00000000	    -85.05926176	    -50.30208130	    -65.01457098	     76.81251393	     84.43498531	      0.00000000	      0.00000000
      1.39444444	     12.49987086	      3.60041088	     71.21003304	      0.85533330	      0.77676962	      0.46828344	     38.91415672	    -33.18886294	     -9.63878448	     37.86212916	      0.66081882	    -19.89799758	      0.00000000	      0.00000000	     14.57557973	    -48.71562860	     39.85615323	     56.60429618	      0.98793134	      3.68463705	      0.00000000	      0.00000000	    -18.09862983	    -11.46197462	     33.65901051	     27.70340144	   -108.61499678	     69.84006982	     58.26137654	     50.46972914	      0.00000000	      0.00000000	    -86.26605946	    -49.67235903	    -67.31755081	     78.91602003	     84.59116094	      0.00000000	      0.00000000
      1.39722222	     12.77358759	      3.57696807	     70.53888800	      0.86293744	      0.77533241	      0.46639257	     39.00719915	    -33.16266762	     -9.94721538	     38.92566340	      0.67938099	    -19.87850706	      0.00000000	      0.00000000	     12.98918592	    -48.87130380	     39.85699186	     56.36231747	      0.98370801	      2.79691715	      0.00000000	      0.00000000	    -17.74382047	    -10.91582861	     34.86614439	     34.41009826	   -109.89725889	     76.41323737	     60.42429979	     50.73497891	      0.00000000	      0.00000000	    -87.33865911	    -48.98686647	    -69.61110329	     80.98044585	     84.70152127	      0.00000000	      0.00000000
      1.40000000	     13.09657318	      3.61159550	     69.88628678	      0.87043814	      0.77407409	      0.46453867	     38.97092149	    -33.13877568	    -10.34187359	     39.98335068	      0.69784112	    -19.79514796	      0.00000000	      0.00000000	     11.31381292	    -49.01066296	     39.85653645	     56.11248499	      0.97934761	      1.88015720	      0.00000000	      0.00000000	    -17.49571602	    -10.30933289	     35.95029981	     40.02277641	   -111.28602340	     81.84162516	     62.42364441	     51.12816054	      0.00000000	      0.00000000	    -88.15087108	    -48.17104258	    -71.86770931	     82.99732299	     85.00179463	      0.00000000	      0.00000000
      1.40277778	     13.27011721	      3.55637568	     69.45534754	      0.87538766	      0.77310662	      0.46344488	     39.07648244	    -33.12042509	    -10.55802654	     40.71528533	      0.71061578	    -19.71538234	      0.00000000	      0.00000000	     10.34005303	    -49.07782545	     39.85691820	     55.97501207	      0.97694826	      1.14173377	      0.00000000	      0.00000000	    -17.25783097	     -9.89726889	     36.57997873	     43.16789714	   -112.22300706	     84.89678130	     63.73688103	     51.43033303	      0.00000000	      0.00000000	    -88.56999409	    -47.53073889	    -73.31909146	     84.27453000	     85.05581474	      0.00000000	      0.00000000
      1.40555556	     13.62890351	      3.59534392	     68.81910132	      0.88262563	      0.77188299	      0.46188678	     39.01121910	    -33.05268813	    -10.93273566	     41.77139236	      0.72904833	    -19.62490076	      0.00000000	      0.00000000	      8.71112256	    -49.19676242	     39.85600741	     55.76102856	      0.97321354	      0.08033869	      0.00000000	      0.00000000	    -17.08032418	     -9.19078621	     37.17148872	     46.09543330	   -113.34605362	     87.83968659	     65.45539356	     52.04475335	      0.00000000	      0.00000000	    -89.01130082	    -46.10904696	    -75.47842703	     86.18330384	     85.20339537	      0.00000000	      0.00000000
      1.40833333	     13.95518553	      3.57582773	     68.16936120	      0.88965806	      0.77036459	      0.46073589	     39.10936440	    -32.95287037	    -11.11903854	     42.88518669	      0.74848771	    -19.61269934	      0.00000000	      0.00000000	      7.20246340	    -49.27429600	     39.85428415	     55.62215570	      0.97078975	     -1.00661665	      0.00000000	      0.00000000	    -16.85595633	     -8.44628406	     37.22906774	     46.94254077	   -113.89099651	     88.89717905	     66.99970953	     52.54520003	      0.00000000	      0.00000000	    -89.28279310	    -43.97538225	    -77.57501218	     88.05842028	     85.19061560	      0.00000000	      0.00000000
      1.41111111	     14.46964835	      3.81083901	     67.52967899	      0.89645968	      0.76943024	      0.45947975	     38.71861871	    -32.81862151	    -11.57674377	     43.87045291	      0.76568385	    -19.52048844	      0.00000000	      0.00000000	      5.31649482	    -49.37692701	     39.85188789	     55.43993053	      0.96760932	     -2.29679075	      0.00000000	      0.00000000	    -16.98441607	     -7.56741158	     37.20120615	     47.49596313	   -114.35716418	     89.36848256	     68.10666542	     55.12403867	      0.00000000	      0.00000000	    -89.43589894	    -41.84951736	    -79.63872444	     89.78214709	     86.04211150	      0.00000000	      0.00000000
      1.41388889	     14.70235671	      3.80218686	     67.08534380	      0.90106856	      0.76837383	      0.45889411	     38.77647786	    -32.72810019	    -11.74138022	     44.59699292	      0.77836436	    -19.50958088	      0.00000000	      0.00000000	      4.30651153	    -49.40288022	     39.84985204	     55.37507711	      0.96647742	     -3.04719683	      0.00000000	      0.00000000	    -16.88040836	     -7.03098118	     37.04437295	     47.46512400	   -114.52690866	     89.51039774	     69.05915077	     55.50522358	      0.00000000	      0.00000000	    -89.51342414	    -40.22861257	    -81.00692553	     90.91305527	     85.98891921	      0.00000000	      0.00000000
      1.41666667	     15.05268281	      3.66082755	     66.46041176	      0.90782608	      0.76653298	      0.45777449	     38.91093620	    -32.57699672	    -12.04468731	     45.64139900	      0.79659269	    -19.65921910	      0.00000000	      0.00000000	      2.97250494	    -49.48360582	     39.84695275	     55.35145185	      0.96606508	     -3.71570031	      0.00000000	      0.00000000	    -16.57278511	     -6.08201360	     36.81690320	     47.27214306	   -114.84515394	     89.63605051	     70.66077898	     56.01969105	      0.00000000	      0.00000000	    -89.57448201	    -38.04474544	    -83.02526650	     92.56189477	     85.91641076	      0.00000000	      0.00000000
      1.41944444	     15.45561381	      3.83598876	     65.86832384	      0.91500942	      0.76567960	      0.45650697	     38.64520266	    -32.46503102	    -12.33014923	     46.69161030	      0.81492233	    -19.50369971	      0.00000000	      0.00000000	      1.18965690	    -49.47626062	     39.84139302	     55.06214515	      0.96101573	     -5.81872297	      0.00000000	      0.00000000	    -16.56380806	     -5.33603212	     36.23244950	     47.07592188	   -114.41464602	     89.69805812	     71.60607361	     56.79278796	      0.00000000	      0.00000000	    -89.64069243	    -35.45216893	    -85.33181815	     94.16743704	     86.07120391	      0.00000000	      0.00000000
      1.42222222	     15.89393055	      3.89616359	     65.26589106	      0.92193594	      0.76449940	      0.45521098	     38.42439854	    -32.27973877	    -12.68736278	     47.65239356	      0.83169116	    -19.60218277	      0.00000000	      0.00000000	     -0.46395723	    -49.51995499	     39.83493563	     54.87905469	      0.95782019	     -7.32006582	      0.00000000	      0.00000000	    -16.49074584	     -4.41612500	     35.76885658	     46.81888737	   -114.29511917	     89.74571686	     72.80246255	     57.54040972	      0.00000000	      0.00000000	    -89.67034475	    -33.16021743	    -87.45118374	     95.72861329	     86.08124987	      0.00000000	      0.00000000
      1.42500000	     16.37643741	      3.94430467	     64.64139080	      0.92859066	      0.76344067	      0.45396555	     38.17222756	    -32.01758760	    -13.02366021	     48.53714313	      0.84713296	    -19.87194695	      0.00000000	      0.00000000	     -2.14718485	    -49.56064420	     39.82894761	     54.73271473	      0.95526608	     -8.91204755	      0.00000000	      0.00000000	    -16.47491694	     -3.38130554	     35.33470647	     46.63586852	   -114.27335139	     89.77996021	     74.08629389	     58.20821028	      0.00000000	      0.00000000	    -89.68688561	    -31.06060084	    -89.11770240	     97.15898237	     85.43390910	      0.00000000	      0.00000000
      1.42777778	     16.62994809	      3.76948226	     64.20737255	      0.93257710	      0.76239134	      0.45309335	     38.24571821	    -31.82378570	    -13.23996817	     49.08121430	      0.85662879	    -20.07302500	      0.00000000	      0.00000000	     -2.99490756	    -49.57826298	     39.82440665	     54.75676254	      0.95568579	     -9.32288839	      0.00000000	      0.00000000	    -16.28880831	     -2.56296428	     35.08800638	     46.55198767	   -114.39925523	     89.79808667	     75.07226000	     58.47081895	      0.00000000	      0.00000000	    -89.69473019	    -29.82191396	    -89.59529703	     97.89749360	     85.01261125	      0.00000000	      0.00000000
      1.43055556	     17.42255571	      4.14055426	     63.54474692	      0.93865871	      0.76249274	      0.45155271	     37.27598076	    -31.45082578	    -13.88087382	     49.67128922	      0.86692754	    -20.50941467	      0.00000000	      0.00000000	     -5.33549177	    -49.61734647	     39.81189342	     54.52427925	      0.95162820	    -11.39781760	      0.00000000	      0.00000000	    -16.82030616	     -1.27608214	     34.73259001	     46.56910140	   -114.54859816	     89.82143878	     76.41258072	     59.19604523	      0.00000000	      0.00000000	    -89.71683307	    -28.00765202	    -89.74899848	     99.07989021	     76.65980482	      0.00000000	      0.00000000
      1.43333333	     17.89183855	      3.96775080	     62.85470042	      0.94486624	      0.76144212	      0.45036546	     37.14056233	    -31.05312531	    -14.28153561	     50.31119376	      0.87809598	    -21.02847437	      0.00000000	      0.00000000	     -6.85204136	    -49.62879517	     39.80108531	     54.46834311	      0.95065193	    -13.00088834	      0.00000000	      0.00000000	    -16.70675395	     -0.03712224	     34.29057353	     46.48695788	   -114.52216571	     89.83863513	     77.73262793	     59.52972740	      0.00000000	      0.00000000	    -89.73780074	    -26.13041641	    -89.82784359	    100.31796328	     68.65203360	      0.00000000	      0.00000000
